<?xml version="1.0" encoding="UTF-8" standalone="no"?>
<!-- Uploaded to: SVG Repo, www.svgrepo.com, Generator: SVG Repo Mixer Tools -->

<svg
   width="800px"
   height="800px"
   viewBox="0 0 24 24"
   fill="none"
   version="1.1"
   id="svg4"
   sodipodi:docname="friends-hollow-symbolic.svg"
   inkscape:version="1.3.2 (091e20ef0f, 2023-11-25, custom)"
   xmlns:inkscape="http://www.inkscape.org/namespaces/inkscape"
   xmlns:sodipodi="http://sodipodi.sourceforge.net/DTD/sodipodi-0.dtd"
   xmlns="http://www.w3.org/2000/svg"
   xmlns:svg="http://www.w3.org/2000/svg">
  <defs
     id="defs4" />
  <sodipodi:namedview
     id="namedview4"
     pagecolor="#ffffff"
     bordercolor="#000000"
     borderopacity="0.25"
     inkscape:showpageshadow="2"
     inkscape:pageopacity="0.0"
     inkscape:pagecheckerboard="0"
     inkscape:deskcolor="#d1d1d1"
     inkscape:zoom="0.71417785"
     inkscape:cx="361.95466"
     inkscape:cy="435.46576"
     inkscape:window-width="1920"
     inkscape:window-height="1012"
     inkscape:window-x="0"
     inkscape:window-y="38"
     inkscape:window-maximized="1"
     inkscape:current-layer="svg4" />
  <path
     id="path1"
     style="fill:#000000;fill-opacity:1;stroke-width:1.08174"
     d="M 9.235957 3.5188477 C 6.5475423 3.5188477 4.3681641 5.6982843 4.3681641 8.3866992 C 4.3681641 11.075136 6.5475423 13.254492 9.235957 13.254492 C 11.924394 13.254492 14.103809 11.075136 14.103809 8.3866992 C 14.103809 5.6982843 11.924394 3.5188477 9.235957 3.5188477 z M 9.0026367 4.4337891 C 9.1613191 4.432668 9.3195086 4.4438856 9.478125 4.4561133 C 12.239666 4.4226945 13.99838 7.8720447 12.754922 10.207617 C 11.648304 12.73304 7.7433127 12.938409 6.101543 10.857422 C 4.1456108 8.6758639 5.8989921 4.5866195 8.8437305 4.4394727 C 8.8967606 4.4359497 8.9497426 4.4341628 9.0026367 4.4337891 z " />
  <path
     id="path2"
     style="fill:#000000;fill-opacity:1;stroke-width:1.08174"
     d="M 16.808145 4.6006055 C 15.965364 4.6006055 15.186814 4.8760384 14.557676 5.3417578 C 14.472976 5.4044977 14.452092 5.5207281 14.501309 5.6139844 C 14.938221 6.4419446 15.185508 7.385445 15.185508 8.3866992 C 15.185508 9.3879533 14.938221 10.331454 14.501309 11.159414 C 14.452089 11.252654 14.472976 11.3689 14.557676 11.431641 C 15.186814 11.897327 15.965364 12.172734 16.808145 12.172734 C 18.899138 12.172734 20.59418 10.477694 20.59418 8.3866992 C 20.59418 6.295705 18.899138 4.6006055 16.808145 4.6006055 z M 16.796133 5.5076953 C 18.019814 5.4994629 19.179635 6.3862243 19.546758 7.5476367 C 20.475281 9.7082431 17.58397 12.134304 15.580078 10.960957 C 16.169905 9.4303646 16.242368 7.6853307 15.686426 6.1348828 C 15.383494 5.5550946 16.228001 5.6381047 16.550801 5.5214648 C 16.632732 5.512777 16.714554 5.5082441 16.796133 5.5076953 z " />
  <path
     id="path3"
     style="fill:#000000;fill-opacity:1;stroke-width:1.08174"
     d="M 9.2358984 14.33625 C 7.0621516 14.33625 5.3130676 14.514074 3.9799805 15.092695 C 2.5263771 15.723671 1.6421134 16.799218 1.1787305 18.318516 C 0.96117194 19.031812 1.4971268 19.744922 2.235 19.744922 L 16.238906 19.744922 C 16.975893 19.744922 17.510716 19.032916 17.293828 18.320918 C 16.831063 16.801837 15.94817 15.725962 14.495508 15.094336 C 13.161945 14.514419 11.411538 14.33625 9.2358984 14.33625 z M 8.3138086 15.265898 C 8.4518869 15.267275 8.5889462 15.270543 8.7246094 15.275391 C 10.755354 15.264826 12.961898 15.144456 14.732227 16.317539 C 15.458859 16.908023 16.578332 17.68228 16.259766 18.769512 C 13.533073 18.817362 10.805937 18.822863 8.0789062 18.829863 C 6.2034856 18.721833 4.3230466 18.954046 2.4511523 18.78123 C 1.7546841 18.532984 2.341629 17.711883 2.6132812 17.349609 C 3.9400096 15.644685 6.2426347 15.245249 8.3138086 15.265898 z " />
  <path
     id="path4"
     style="fill:#000000;fill-opacity:1;stroke-width:1.08174"
     d="M 16.767891 13.25373 C 16.182075 13.253279 15.583173 13.25699 14.989219 13.293867 L 14.98916 13.293867 C 14.541323 13.321667 14.515087 13.923307 14.926582 14.102227 C 16.054182 14.592576 16.903239 15.314428 17.512148 16.235742 C 18.011801 16.991766 18.787718 17.581465 19.693887 17.581465 L 21.620039 17.581465 C 22.385043 17.581465 22.943218 16.821322 22.674082 16.078711 C 22.658612 16.035991 22.642451 15.993586 22.625801 15.951504 C 22.255415 15.016235 21.620575 14.327688 20.680547 13.888828 C 19.79796 13.476796 18.693038 13.306753 17.391387 13.255371 L 17.37 13.254492 L 17.348672 13.254492 C 17.156988 13.254492 16.963162 13.253881 16.767891 13.25373 z M 16.898438 14.195332 C 17.481554 14.203862 18.097331 14.191947 18.67084 14.278887 C 19.876205 14.487572 21.487886 14.963242 21.708984 16.37502 C 21.377186 16.895829 20.630668 16.653837 20.123027 16.660137 C 18.586493 16.683455 17.880511 15.096462 16.898438 14.195332 z " />
</svg>
