<?xml version="1.0" encoding="UTF-8" standalone="no"?>
<!-- Uploaded to: SVG Repo, www.svgrepo.com, Generator: SVG Repo Mixer Tools -->

<svg
   width="800px"
   height="800px"
   viewBox="0 0 24 24"
   fill="none"
   version="1.1"
   id="svg4"
   sodipodi:docname="friends-symbolic.svg"
   inkscape:version="1.3.2 (091e20ef0f, 2023-11-25, custom)"
   xmlns:inkscape="http://www.inkscape.org/namespaces/inkscape"
   xmlns:sodipodi="http://sodipodi.sourceforge.net/DTD/sodipodi-0.dtd"
   xmlns="http://www.w3.org/2000/svg"
   xmlns:svg="http://www.w3.org/2000/svg">
  <defs
     id="defs4" />
  <sodipodi:namedview
     id="namedview4"
     pagecolor="#ffffff"
     bordercolor="#000000"
     borderopacity="0.25"
     inkscape:showpageshadow="2"
     inkscape:pageopacity="0.0"
     inkscape:pagecheckerboard="0"
     inkscape:deskcolor="#d1d1d1"
     inkscape:zoom="0.71417785"
     inkscape:cx="361.95466"
     inkscape:cy="435.46576"
     inkscape:window-width="1920"
     inkscape:window-height="1012"
     inkscape:window-x="0"
     inkscape:window-y="38"
     inkscape:window-maximized="1"
     inkscape:current-layer="svg4" />
  <path
     fill-rule="evenodd"
     clip-rule="evenodd"
     d="m 4.3681571,8.3866824 c 0,-2.6884176 2.1793958,-4.8678134 4.8678132,-4.8678134 2.6884397,0 4.8678137,2.1793958 4.8678137,4.8678134 0,2.6884396 -2.179374,4.8678136 -4.8678137,4.8678136 -2.6884174,0 -4.8678132,-2.179374 -4.8678132,-4.8678136 z"
     fill="#323232"
     id="path1"
     style="fill:#000000;fill-opacity:1;stroke-width:1.08174" />
  <path
     d="m 14.501322,11.159389 c -0.04922,0.09324 -0.02834,0.209532 0.05636,0.272273 0.629139,0.465687 1.407664,0.741097 2.250445,0.741097 2.090996,0 3.786077,-1.69508 3.786077,-3.7860766 0,-2.0909963 -1.695081,-3.7860771 -3.786077,-3.7860771 -0.842781,0 -1.621306,0.2754101 -2.250445,0.74113 -0.0847,0.06274 -0.105577,0.1789733 -0.05636,0.2722297 0.436913,0.8279611 0.684198,1.7714622 0.684198,2.7727174 0,1.0012551 -0.247285,1.9447456 -0.684198,2.7727066 z"
     fill="#323232"
     id="path2"
     style="fill:#000000;fill-opacity:1;stroke-width:1.08174" />
  <path
     fill-rule="evenodd"
     clip-rule="evenodd"
     d="m 3.979976,15.092691 c 1.3330885,-0.578622 3.0821912,-0.756459 5.2559402,-0.756459 2.1756418,0 3.9260008,0.178162 5.2595648,0.75808 1.452664,0.631627 2.335577,1.707522 2.798343,3.226604 0.216888,0.711999 -0.317922,1.423998 -1.054909,1.423998 H 2.2349838 c -0.7378739,0 -1.27380935,-0.713081 -1.0562506,-1.426378 0.4633834,-1.519299 1.347638,-2.594869 2.8012428,-3.225845 z"
     fill="#323232"
     id="path3"
     style="fill:#000000;fill-opacity:1;stroke-width:1.08174" />
  <path
     d="m 14.989185,13.293871 c -0.447838,0.0278 -0.474125,0.629462 -0.06263,0.808382 v 0 c 1.127601,0.49035 1.976656,1.212193 2.585566,2.133508 0.499653,0.756025 1.275583,1.34568 2.181753,1.34568 h 1.92614 c 0.765005,0 1.32318,-0.760136 1.054044,-1.502748 -0.01547,-0.04272 -0.03159,-0.08513 -0.04824,-0.127212 -0.370386,-0.93527 -1.005257,-1.623795 -1.945286,-2.062655 -0.882588,-0.412033 -1.987474,-0.582083 -3.289127,-0.633465 l -0.02142,-8.65e-4 h -0.02131 c -0.766736,0 -1.567544,-0.0098 -2.359484,0.03937 z"
     fill="#323232"
     id="path4"
     style="fill:#000000;fill-opacity:1;stroke-width:1.08174" />
</svg>
