<?xml version="1.0" encoding="UTF-8" standalone="no"?>
<!-- Uploaded to: SVG Repo, www.svgrepo.com, Generator: SVG Repo Mixer Tools -->

<svg
   width="800px"
   height="800px"
   viewBox="0 0 24 24"
   fill="none"
   version="1.1"
   id="svg1"
   sodipodi:docname="inbox-hollow-symbolic.svg"
   inkscape:version="1.3.2 (091e20ef0f, 2023-11-25, custom)"
   xmlns:inkscape="http://www.inkscape.org/namespaces/inkscape"
   xmlns:sodipodi="http://sodipodi.sourceforge.net/DTD/sodipodi-0.dtd"
   xmlns="http://www.w3.org/2000/svg"
   xmlns:svg="http://www.w3.org/2000/svg">
  <defs
     id="defs1" />
  <sodipodi:namedview
     id="namedview1"
     pagecolor="#ffffff"
     bordercolor="#000000"
     borderopacity="0.25"
     inkscape:showpageshadow="2"
     inkscape:pageopacity="0.0"
     inkscape:pagecheckerboard="0"
     inkscape:deskcolor="#d1d1d1"
     inkscape:zoom="0.71417785"
     inkscape:cx="371.75614"
     inkscape:cy="424.26407"
     inkscape:window-width="1920"
     inkscape:window-height="1012"
     inkscape:window-x="0"
     inkscape:window-y="38"
     inkscape:window-maximized="1"
     inkscape:current-layer="svg1" />
  <path
     id="path1"
     style="fill:#000000;fill-opacity:1;stroke-width:1.07926"
     d="M 6.5518945 1.385918 C 5.5951528 1.385864 4.7707843 1.3858121 4.1106445 1.4745703 C 3.4031792 1.5696855 2.725066 1.7841439 2.175 2.3341992 C 1.6249447 2.8842653 1.4104279 3.5624373 1.3153125 4.2699023 C 1.2265545 4.9300421 1.2266062 5.7544106 1.2266602 6.7111523 L 1.2266602 6.782168 L 1.2266602 13.328789 C 1.2266062 14.285553 1.2265543 15.109857 1.3153125 15.770039 C 1.4104277 16.477494 1.6249447 17.155752 2.175 17.705742 C 2.725066 18.255841 3.4031792 18.470239 4.1106445 18.56543 C 4.7707951 18.654145 5.5951897 18.65419 6.5519531 18.654082 L 8.7229102 18.654082 L 10.957266 22.229004 C 11.447789 23.013842 12.590707 23.013842 13.08123 22.229004 L 15.315645 18.654082 L 17.486602 18.654082 C 18.443365 18.654192 19.267669 18.65415 19.927852 18.56543 C 20.635306 18.470239 21.313506 18.255841 21.863496 17.705742 C 22.413595 17.155752 22.628052 16.477494 22.723242 15.770039 C 22.81196 15.109857 22.811944 14.285553 22.811836 13.328789 L 22.811836 6.7111523 C 22.811946 5.7543889 22.811962 4.9300529 22.723242 4.2699023 C 22.628051 3.5624371 22.413595 2.8842653 21.863496 2.3341992 C 21.313506 1.7841439 20.635306 1.5696852 19.927852 1.4745703 C 19.267669 1.3858123 18.443365 1.385864 17.486602 1.385918 L 6.6229688 1.385918 L 6.5518945 1.385918 z M 18.642129 2.4810937 C 19.59415 2.4723641 20.529329 2.5681434 21.216797 3.2968945 C 21.909378 5.4592639 21.706102 7.7592031 21.699902 10.002773 C 21.447776 12.20054 22.220837 14.535962 21.223828 16.606055 C 20.566021 17.500562 19.281846 17.558322 18.257402 17.574902 C 17.315298 17.666372 16.359196 17.338318 15.439453 17.594414 C 13.770178 18.081958 13.421737 20.031474 12.453105 21.210938 C 12.170018 21.636908 11.839967 21.648573 11.616211 21.157969 C 10.786117 20.213152 10.395311 18.957799 9.5217187 18.057129 C 7.9197071 17.082112 5.942068 17.855547 4.2130664 17.485547 C 3.3238734 17.416976 2.6503229 16.696571 2.5410352 15.830098 C 2.1501557 12.407136 2.405607 8.9272797 2.37 5.4812695 C 2.1984158 4.3763003 2.654271 3.0123394 3.8183789 2.6620898 C 5.699446 2.4854689 7.6017745 2.5200578 9.4921875 2.4863086 C 11.981537 2.4782796 14.470776 2.5064488 16.960137 2.4955078 C 17.493627 2.5292073 18.070916 2.4863316 18.642129 2.4810937 z M 15.046875 6.7597852 C 12.216655 6.7663171 9.3866473 6.7871151 6.5566406 6.8222461 C 4.7178279 6.7067304 3.7983786 9.443012 5.1816211 10.568379 C 4.1888747 11.426039 4.2794343 13.248116 5.4199219 13.941387 C 7.7601615 14.624602 10.220994 14.254726 12.61875 14.291016 C 14.326918 14.769425 15.883006 12.575698 14.960918 11.101582 C 15.578755 11.092472 16.196635 11.083319 16.814473 11.074219 C 18.538282 11.589803 20.227859 9.3479505 19.267559 7.8300586 C 18.268873 6.5468986 16.476176 6.8334331 15.046875 6.7597852 z M 6.6229688 7.8614648 L 17.415586 7.8614648 C 18.01166 7.8614648 18.494824 8.3446498 18.494824 8.9407031 C 18.494824 9.5367563 18.01166 10.02 17.415586 10.02 L 6.6229688 10.02 C 6.0269153 10.02 5.5436719 9.5367563 5.5436719 8.9407031 C 5.5436719 8.3446498 6.0269153 7.8614648 6.6229688 7.8614648 z M 6.6229688 11.099238 L 13.098516 11.099238 C 13.69459 11.099238 14.177754 11.582401 14.177754 12.178477 C 14.177754 12.774551 13.69459 13.257773 13.098516 13.257773 L 6.6229688 13.257773 C 6.0269153 13.257773 5.5436719 12.774551 5.5436719 12.178477 C 5.5436719 11.582401 6.0269153 11.099238 6.6229688 11.099238 z " />
</svg>
