<?xml version="1.0" encoding="UTF-8" standalone="no"?>
<!-- Uploaded to: SVG Repo, www.svgrepo.com, Generator: SVG Repo Mixer Tools -->

<svg
   width="800px"
   height="800px"
   viewBox="0 0 24 24"
   fill="none"
   version="1.1"
   id="svg1"
   sodipodi:docname="inbox-symbolic.svg"
   inkscape:version="1.3.2 (091e20ef0f, 2023-11-25, custom)"
   xmlns:inkscape="http://www.inkscape.org/namespaces/inkscape"
   xmlns:sodipodi="http://sodipodi.sourceforge.net/DTD/sodipodi-0.dtd"
   xmlns="http://www.w3.org/2000/svg"
   xmlns:svg="http://www.w3.org/2000/svg">
  <defs
     id="defs1" />
  <sodipodi:namedview
     id="namedview1"
     pagecolor="#ffffff"
     bordercolor="#000000"
     borderopacity="0.25"
     inkscape:showpageshadow="2"
     inkscape:pageopacity="0.0"
     inkscape:pagecheckerboard="0"
     inkscape:deskcolor="#d1d1d1"
     inkscape:zoom="0.71417785"
     inkscape:cx="371.75614"
     inkscape:cy="424.26407"
     inkscape:window-width="1920"
     inkscape:window-height="1012"
     inkscape:window-x="0"
     inkscape:window-y="38"
     inkscape:window-maximized="1"
     inkscape:current-layer="svg1" />
  <path
     fill-rule="evenodd"
     clip-rule="evenodd"
     d="m 6.6229539,7.8614559 c -0.596054,0 -1.0792605,0.4832065 -1.0792605,1.0792604 0,0.5960538 0.4832065,1.0792607 1.0792605,1.0792607 H 17.415559 c 0.596075,0 1.07926,-0.4832069 1.07926,-1.0792607 0,-0.5960539 -0.483185,-1.0792604 -1.07926,-1.0792604 z m 0,3.2377811 c -0.596054,0 -1.0792605,0.483185 -1.0792605,1.079261 0,0.596075 0.4832065,1.07926 1.0792605,1.07926 h 6.4755631 c 0.596075,0 1.07926,-0.483185 1.07926,-1.07926 0,-0.596076 -0.483185,-1.079261 -1.07926,-1.079261 z M 6.5519061,1.3858933 c 0.023604,0 0.047293,0 0.071048,0 H 17.486574 c 0.956764,-5.4e-5 1.781104,-9.71e-5 2.441287,0.088661 0.707455,0.095115 1.385663,0.3096075 1.935654,0.8596634 0.550099,0.5500666 0.764548,1.2282199 0.859739,1.9356859 0.08872,0.6601512 0.08872,1.4845119 0.08861,2.4412763 v 6.6175931 c 1.08e-4,0.956765 1.08e-4,1.781104 -0.08861,2.441287 -0.09519,0.707456 -0.30964,1.385663 -0.859739,1.935654 -0.549991,0.550099 -1.228199,0.764548 -1.935654,0.859739 -0.660183,0.08872 -1.484523,0.08872 -2.441287,0.08861 h -2.170932 l -2.234393,3.574942 c -0.490524,0.784839 -1.633461,0.784839 -2.123985,0 L 8.7229356,18.65406 H 6.5519385 C 5.5951741,18.654168 4.7708134,18.654168 4.1106622,18.565453 3.4031962,18.470262 2.7250429,18.255813 2.1749763,17.705714 1.6249204,17.155723 1.4104282,16.477516 1.3153129,15.77006 1.2265546,15.109877 1.2265977,14.285538 1.2266517,13.328773 V 6.7821955 c 0,-0.023755 0,-0.047444 0,-0.071048 C 1.2265977,5.7544048 1.2265546,4.930044 1.3153127,4.2699036 1.4104282,3.5624378 1.6249204,2.8842845 2.1749763,2.3342179 2.7250429,1.784162 3.4031962,1.5696698 4.1106622,1.4745545 4.7708026,1.3857962 5.5951634,1.3858393 6.5519061,1.3858933 Z"
     fill="#323232"
     id="path1"
     style="fill:#000000;fill-opacity:1;stroke-width:1.07926" />
</svg>
