<?xml version="1.0" encoding="UTF-8" standalone="no"?>
<svg
   width="4096"
   height="4096"
   viewBox="0 0 3238.1658 3238.1659"
   version="1.1"
   id="svg20"
   sodipodi:docname="com.maxrdz.GnomeTikTok.Devel.svg"
   inkscape:version="1.3.2 (091e20ef0f, 2023-11-25, custom)"
   inkscape:export-filename="G:\Users\suitedoalex\sites\tiktok-logo-0.png"
   inkscape:export-xdpi="96"
   inkscape:export-ydpi="96"
   xmlns:inkscape="http://www.inkscape.org/namespaces/inkscape"
   xmlns:sodipodi="http://sodipodi.sourceforge.net/DTD/sodipodi-0.dtd"
   xmlns="http://www.w3.org/2000/svg"
   xmlns:svg="http://www.w3.org/2000/svg"
   xmlns:rdf="http://www.w3.org/1999/02/22-rdf-syntax-ns#"
   xmlns:cc="http://creativecommons.org/ns#"
   xmlns:dc="http://purl.org/dc/elements/1.1/">
  <metadata
     id="metadata26">
    <rdf:RDF>
      <cc:Work
         rdf:about="">
        <dc:format>image/svg+xml</dc:format>
        <dc:type
           rdf:resource="http://purl.org/dc/dcmitype/StillImage" />
      </cc:Work>
    </rdf:RDF>
  </metadata>
  <defs
     id="defs24" />
  <sodipodi:namedview
     pagecolor="#ffffff"
     bordercolor="#666666"
     borderopacity="1"
     objecttolerance="10"
     gridtolerance="10"
     guidetolerance="10"
     inkscape:pageopacity="0"
     inkscape:pageshadow="2"
     inkscape:window-width="1474"
     inkscape:window-height="751"
     id="namedview22"
     showgrid="false"
     inkscape:zoom="0.13192775"
     inkscape:cx="2141.3236"
     inkscape:cy="2042.7848"
     inkscape:window-x="50"
     inkscape:window-y="124"
     inkscape:window-maximized="0"
     inkscape:current-layer="svg20"
     inkscape:showpageshadow="2"
     inkscape:pagecheckerboard="0"
     inkscape:deskcolor="#d1d1d1" />
  <path
     d="m 4002.7049,978.92525 h 200 c 13.808,0 25,11.192 25,25.00005 v 200 c 0,13.808 -11.192,25 -25,25 h -200 c -13.808,0 -25,-11.192 -25,-25 v -200 c 0,-13.80805 11.192,-25.00005 25,-25.00005 z"
     id="path2"
     style="clip-rule:evenodd;fill:#170c1a;fill-opacity:1;fill-rule:evenodd"
     inkscape:connector-curvature="0"
     inkscape:export-filename="G:\Users\suitedoalex\sites\tiktok-logo-icon-1.png"
     inkscape:export-xdpi="38.858036"
     inkscape:export-ydpi="38.858036" />
  <path
     d="m 4134.6849,1208.9253 c 7.607,0 13.774,-6.117 13.774,-13.662 0,-7.545 -6.167,-13.663 -13.774,-13.663 h -2.075 c 7.607,0 13.774,6.118 13.774,13.663 0,7.545 -6.167,13.662 -13.774,13.662 z"
     id="path4"
     inkscape:connector-curvature="0"
     style="clip-rule:evenodd;fill:#ee1d51;fill-rule:evenodd"
     inkscape:export-filename="G:\Users\suitedoalex\sites\tiktok-logo-icon-1.png"
     inkscape:export-xdpi="38.858036"
     inkscape:export-ydpi="38.858036" />
  <path
     d="m 4132.4219,1181.6003 h -2.075 c -7.607,0 -13.775,6.118 -13.775,13.663 0,7.545 6.168,13.662 13.775,13.662 h 2.075 c -7.608,0 -13.775,-6.117 -13.775,-13.662 0,-7.545 6.167,-13.663 13.775,-13.663 z"
     id="path6"
     inkscape:connector-curvature="0"
     style="clip-rule:evenodd;fill:#66c8cf;fill-rule:evenodd"
     inkscape:export-filename="G:\Users\suitedoalex\sites\tiktok-logo-icon-1.png"
     inkscape:export-xdpi="38.858036"
     inkscape:export-ydpi="38.858036" />
  <ellipse
     cx="4132.5161"
     cy="1195.2633"
     rx="6.6989999"
     ry="6.6430001"
     id="ellipse8"
     style="clip-rule:evenodd;fill:#170c1a;fill-rule:evenodd;fill-opacity:1"
     inkscape:export-filename="G:\Users\suitedoalex\sites\tiktok-logo-icon-1.png"
     inkscape:export-xdpi="38.858036"
     inkscape:export-ydpi="38.858036" />
  <path
     d="m 4027.7049,1175.4253 v 6.925 h 8.112 v 26.388 h 8.115 v -26.201 h 6.603 l 2.264,-7.112 z m 66.415,0 v 6.925 h 8.112 v 26.388 h 8.115 v -26.201 h 6.603 l 2.264,-7.112 z m -39.81,3.93 c 0,-2.17 1.771,-3.93 3.959,-3.93 2.19,0 3.963,1.76 3.963,3.93 0,2.17 -1.772,3.93 -3.963,3.93 -2.188,0 -3.959,-1.76 -3.959,-3.93 z m 0,6.738 h 7.922 v 22.645 h -7.922 z m 11.319,-10.668 v 33.313 h 7.925 v -8.608 l 2.453,-2.248 7.735,11.043 h 8.49 l -11.133,-16.095 10,-9.733 h -9.622 l -7.923,7.86 v -15.532 z m 85.47,0 v 33.313 h 7.926 v -8.608 l 2.452,-2.248 7.737,11.043 h 8.491 l -11.133,-16.095 10,-9.733 h -9.622 l -7.925,7.86 v -15.532 z"
     id="path10"
     inkscape:connector-curvature="0"
     style="clip-rule:evenodd;fill:#ffffff;fill-rule:evenodd"
     inkscape:export-filename="G:\Users\suitedoalex\sites\tiktok-logo-icon-1.png"
     inkscape:export-xdpi="38.858036"
     inkscape:export-ydpi="38.858036" />
  <path
     d="m 4138.8719,1060.1113 c 10.944,7.819 24.352,12.42 38.832,12.42 v -27.851 a 39.26,39.26 0 0 1 -8.155,-0.853 v 21.923 c -14.479,0 -27.885,-4.601 -38.832,-12.42 v 56.835 c 0,28.432 -23.06,51.479 -51.505,51.479 -10.613,0 -20.478,-3.207 -28.673,-8.707 9.353,9.558 22.396,15.488 36.826,15.488 28.447,0 51.508,-23.047 51.508,-51.48 v -56.834 z m 10.06,-28.098 c -5.593,-6.107 -9.265,-14 -10.06,-22.726 v -3.582 h -7.728 c 1.945,11.09 8.58,20.565 17.788,26.308 z m -80.402,99.107 a 23.445,23.445 0 0 1 -4.806,-14.256 c 0,-13.004 10.548,-23.547 23.561,-23.547 a 23.6,23.6 0 0 1 7.147,1.103 v -28.473 a 51.97,51.97 0 0 0 -8.152,-0.469 v 22.162 a 23.619,23.619 0 0 0 -7.15,-1.103 c -13.013,0 -23.56,10.543 -23.56,23.548 0,9.195 5.272,17.157 12.96,21.035 z"
     id="path12"
     inkscape:connector-curvature="0"
     style="clip-rule:evenodd;fill:#ee1d52;fill-rule:evenodd"
     inkscape:export-filename="G:\Users\suitedoalex\sites\tiktok-logo-icon-1.png"
     inkscape:export-xdpi="38.858036"
     inkscape:export-ydpi="38.858036" />
  <path
     d="m 4130.7169,1053.3303 c 10.947,7.819 24.353,12.42 38.832,12.42 v -21.923 c -8.082,-1.72 -15.237,-5.942 -20.617,-11.814 -9.208,-5.743 -15.843,-15.218 -17.788,-26.308 h -20.299 v 111.239 c -0.046,12.968 -10.576,23.468 -23.561,23.468 -7.652,0 -14.45,-3.645 -18.755,-9.292 -7.688,-3.878 -12.96,-11.84 -12.96,-21.035 0,-13.005 10.547,-23.548 23.56,-23.548 2.493,0 4.896,0.388 7.15,1.103 v -22.162 c -27.945,0.577 -50.42,23.399 -50.42,51.467 0,14.011 5.597,26.713 14.68,35.993 8.195,5.5 18.06,8.707 28.673,8.707 28.445,0 51.505,-23.048 51.505,-51.479 z"
     id="path14"
     inkscape:connector-curvature="0"
     style="clip-rule:evenodd;fill:#ffffff;fill-rule:evenodd"
     inkscape:export-filename="G:\Users\suitedoalex\sites\tiktok-logo-icon-1.png"
     inkscape:export-xdpi="38.858036"
     inkscape:export-ydpi="38.858036" />
  <path
     d="m 4169.5489,1043.8273 v -5.928 a 38.84,38.84 0 0 1 -20.617,-5.887 38.948,38.948 0 0 0 20.617,11.815 z m -38.405,-38.122 a 39.524,39.524 0 0 1 -0.427,-3.198 v -3.58205 h -28.028 v 111.24005 c -0.045,12.967 -10.574,23.467 -23.56,23.467 -3.813,0 -7.412,-0.904 -10.6,-2.512 4.305,5.647 11.103,9.292 18.755,9.292 12.984,0 23.515,-10.5 23.561,-23.468 v -111.239 z m -44.864,59.773 v -6.311 a 51.97,51.97 0 0 0 -7.067,-0.479 c -28.448,0 -51.508,23.048 -51.508,51.477 0,17.824 9.063,33.532 22.835,42.772 -9.083,-9.28 -14.68,-21.982 -14.68,-35.993 0,-28.067 22.474,-50.889 50.42,-51.466 z"
     id="path16"
     style="clip-rule:evenodd;fill:#25f4ee;fill-opacity:1;fill-rule:evenodd"
     inkscape:connector-curvature="0"
     inkscape:export-filename="G:\Users\suitedoalex\sites\tiktok-logo-icon-1.png"
     inkscape:export-xdpi="38.858036"
     inkscape:export-ydpi="38.858036" />
  <path
     d="m 4132.6089,1208.9253 c 7.607,0 13.775,-6.117 13.775,-13.662 0,-7.545 -6.168,-13.663 -13.775,-13.663 h -0.188 c -7.607,0 -13.774,6.118 -13.774,13.663 0,7.545 6.167,13.662 13.774,13.662 z m -6.792,-13.662 c 0,-3.67 3,-6.643 6.7,-6.643 3.697,0 6.697,2.973 6.697,6.643 0,3.67 -3,6.645 -6.697,6.645 -3.7,0 -6.7,-2.975 -6.7,-6.645 z"
     id="path18"
     inkscape:connector-curvature="0"
     style="clip-rule:evenodd;fill:#ffffff;fill-rule:evenodd"
     inkscape:export-filename="G:\Users\suitedoalex\sites\tiktok-logo-icon-1.png"
     inkscape:export-xdpi="38.858036"
     inkscape:export-ydpi="38.858036" />
  <path
     inkscape:connector-curvature="0"
     style="clip-rule:evenodd;fill:#463101;fill-opacity:0.57224321;fill-rule:evenodd;stroke-width:16.7727"
     d="m 2198.7615,1221.7205 c 183.5608,131.1459 408.4497,208.3172 651.3189,208.3172 V 962.90033 a 658.49767,658.49767 0 0 1 -136.7817,-14.30711 v 367.70858 c -242.8525,0 -467.7077,-77.1714 -651.319,-208.3172 v 953.2784 c 0,476.8825 -386.7792,863.4438 -863.8798,863.4438 -178.0091,0 -343.47219,-53.7902 -480.92464,-146.0403 156.87525,160.3139 375.64204,259.7762 617.67274,259.7762 477.1341,0 863.9303,-386.5613 863.9303,-863.4605 v -953.2617 z m 168.7337,-471.28037 c -93.81,-102.43119 -155.3995,-234.81837 -168.7337,-381.17728 v -60.07994 h -129.6199 c 32.6231,186.00965 143.9102,344.93136 298.3536,441.25722 z M 1018.9336,2412.7357 a 393.23683,393.23683 0 0 1 -80.60999,-239.1121 c 0,-218.1127 176.91899,-394.9477 395.18259,-394.9477 a 395.83661,395.83661 0 0 1 119.8748,18.5003 v -477.5701 a 871.67917,871.67917 0 0 0 -136.7314,-7.8664 v 371.7174 a 396.15529,396.15529 0 0 0 -119.925,-18.5003 c -218.26368,0 -395.16569,176.8349 -395.16569,394.9644 0,154.2253 88.4256,287.7698 217.37469,352.8145 z"
     id="path12-0"
     inkscape:export-filename="G:\Users\suitedoalex\sites\tiktok-logo-11.png"
     inkscape:export-xdpi="8.0946302"
     inkscape:export-ydpi="8.0946302" />
  <path
     inkscape:connector-curvature="0"
     style="clip-rule:evenodd;fill:#000000;fill-rule:evenodd;stroke-width:16.7727"
     d="m 2061.9797,1107.9846 c 183.6113,131.1458 408.4665,208.3172 651.319,208.3172 V 948.59322 C 2577.7414,919.74417 2457.7325,848.92959 2367.4952,750.44013 2213.0518,654.11427 2101.7647,495.19256 2069.1416,309.18291 H 1728.6719 V 2174.9654 c -0.7715,217.5089 -177.3884,393.6226 -395.1825,393.6226 -128.3449,0 -242.366,-61.1366 -314.5729,-155.8523 -128.94859,-65.0447 -217.37439,-198.5892 -217.37439,-352.8145 0,-218.1295 176.90201,-394.9644 395.16579,-394.9644 41.8144,0 82.1193,6.5078 119.9249,18.5003 v -371.7174 c -468.71409,9.6779 -845.68137,392.4652 -845.68137,863.2425 0,235.0028 93.87698,448.0501 246.22383,603.7011 137.45245,92.2501 302.91554,146.0402 480.92464,146.0402 477.1006,0 863.8798,-386.578 863.8798,-863.4437 z"
     id="path14-6"
     inkscape:export-filename="G:\Users\suitedoalex\sites\tiktok-logo-11.png"
     inkscape:export-xdpi="8.0946302"
     inkscape:export-ydpi="8.0946302" />
  <path
     inkscape:connector-curvature="0"
     style="clip-rule:evenodd;fill:#ffb407;fill-opacity:1;fill-rule:evenodd;stroke-width:16.7727"
     d="m 2713.2987,948.59322 v -99.4288 a 651.45312,651.45312 0 0 1 -345.8035,-98.74111 653.26459,653.26459 0 0 0 345.8035,198.16991 z M 2069.1416,309.18291 a 662.92568,662.92568 0 0 1 -7.1619,-53.63922 V 195.46374 H 1591.8735 V 2061.263 c -0.7548,217.4922 -177.3549,393.6059 -395.1656,393.6059 -63.9545,0 -124.3197,-15.1626 -177.7914,-42.1332 72.2069,94.7157 186.228,155.8523 314.5729,155.8523 217.7774,0 394.411,-176.1137 395.1825,-393.6226 V 309.18291 Z m -752.492,1002.55679 v -105.8528 a 871.67917,871.67917 0 0 0 -118.5328,-8.0342 c -477.15092,0 -863.93027,386.578 -863.93027,863.4103 0,298.9572 152.01135,562.4234 383.00543,717.4035 -152.34673,-155.651 -246.22371,-368.6984 -246.22371,-603.7011 0,-470.7605 376.95046,-853.5478 845.68135,-863.2257 z"
     id="path16-9"
     inkscape:export-filename="G:\Users\suitedoalex\sites\tiktok-logo-11.png"
     inkscape:export-xdpi="8.0946302"
     inkscape:export-ydpi="8.0946302" />
  <path
     inkscape:connector-curvature="0"
     style="clip-rule:evenodd;fill:#fe2c55;fill-opacity:1;fill-rule:evenodd;stroke-width:3.41569996"
     d="m 5049.805,1180.1329 c 25.9836,0 47.0483,-20.894 47.0483,-46.6663 0,-25.7712 -21.0647,-46.6681 -47.0483,-46.6681 h -7.0875 c 25.9824,0 47.0468,20.8969 47.0468,46.6681 0,25.7723 -21.0644,46.6663 -47.0468,46.6663 z"
     id="path4-5-5-9"
     inkscape:export-filename="G:\Users\suitedoalex\sites\tiktok-logo-8.png"
     inkscape:export-xdpi="40.556736"
     inkscape:export-ydpi="40.556736" />
  <path
     inkscape:connector-curvature="0"
     style="clip-rule:evenodd;fill:#25f4ee;fill-opacity:1;fill-rule:evenodd;stroke-width:3.41569996"
     d="m 5042.0745,1086.7985 h -7.0868 c -25.9843,0 -47.0513,20.8969 -47.0513,46.6681 0,25.7723 21.067,46.6663 47.0513,46.6663 h 7.0868 c -25.9862,0 -47.0506,-20.894 -47.0506,-46.6663 0,-25.7712 21.0644,-46.6681 47.0506,-46.6681 z"
     id="path6-9-0-6"
     inkscape:export-filename="G:\Users\suitedoalex\sites\tiktok-logo-8.png"
     inkscape:export-xdpi="40.556736"
     inkscape:export-ydpi="40.556736" />
  <path
     inkscape:connector-curvature="0"
     style="clip-rule:evenodd;fill:#000000;fill-rule:evenodd;stroke-width:3.41569996"
     d="m 4684.3929,1065.7061 v 23.6548 h 27.7085 v 90.1334 h 27.7186 v -89.4959 h 22.5531 l 7.7332,-24.2923 z m 226.8534,0 v 23.6548 h 27.7085 v 90.1334 h 27.7191 v -89.4959 h 22.5527 l 7.735,-24.2923 z M 4775.267,1079.13 c 0,-7.4116 6.05,-13.4239 13.523,-13.4239 7.4801,0 13.5372,6.0123 13.5372,13.4239 0,7.4128 -6.053,13.4236 -13.5372,13.4236 -7.473,0 -13.523,-6.0108 -13.523,-13.4236 z m 0,23.016 h 27.0602 v 77.3483 h -27.0602 z m 38.6624,-36.4399 v 113.7882 h 27.0699 v -29.4028 l 8.3788,-7.6785 26.421,37.7199 h 28.9991 l -38.0277,-54.9766 34.1568,-33.2442 h -32.8654 l -27.0626,26.8475 v -53.0535 z m 291.9416,0 v 113.7882 h 27.0726 v -29.4028 l 8.3739,-7.6785 26.4285,37.7199 h 29.0013 l -38.0262,-54.9766 34.1571,-33.2442 h -32.8654 l -27.0692,26.8475 v -53.0535 z"
     id="path10-7-4-8"
     inkscape:export-filename="G:\Users\suitedoalex\sites\tiktok-logo-8.png"
     inkscape:export-xdpi="40.556736"
     inkscape:export-ydpi="40.556736" />
  <path
     inkscape:connector-curvature="0"
     style="clip-rule:evenodd;fill:#000000;fill-rule:evenodd;stroke-width:3.41569996"
     d="m 5042.7138,1180.1329 c 25.9835,0 47.0505,-20.894 47.0505,-46.6663 0,-25.7712 -21.067,-46.6681 -47.0505,-46.6681 h -0.6442 c -25.9835,0 -47.048,20.8969 -47.048,46.6681 0,25.7723 21.0645,46.6663 47.048,46.6663 z m -23.1995,-46.6663 c 0,-12.5349 10.2465,-22.6903 22.8846,-22.6903 12.6284,0 22.8762,10.1554 22.8762,22.6903 0,12.5361 -10.2478,22.6985 -22.8762,22.6985 -12.6381,0 -22.8846,-10.1624 -22.8846,-22.6985 z"
     id="path18-6-2-0"
     inkscape:export-filename="G:\Users\suitedoalex\sites\tiktok-logo-8.png"
     inkscape:export-xdpi="40.556736"
     inkscape:export-ydpi="40.556736" />
  <path
     inkscape:connector-curvature="0"
     style="clip-rule:evenodd;fill:#fe2c55;fill-opacity:1;fill-rule:evenodd;stroke-width:1.28784943"
     d="m 4591.3868,1071.5128 c 14.0947,10.0697 31.3619,15.9953 50.0101,15.9953 v -35.8679 a 50.560966,50.560966 0 0 1 -10.5027,-1.0987 v 28.2337 c -18.6467,0 -35.9116,-5.9255 -50.0097,-15.9953 v 73.1949 c 0,36.6163 -29.6977,66.2972 -66.3304,66.2972 -13.6681,0 -26.3732,-4.1298 -36.9267,-11.2129 12.0452,12.3091 28.8428,19.9462 47.426,19.9462 36.6357,0 66.3346,-29.6814 66.3346,-66.2988 v -73.1937 z m 12.956,-36.1856 c -7.2031,-7.8652 -11.9323,-18.0302 -12.956,-29.2679 v -4.613 h -9.9523 c 2.5048,14.2824 11.05,26.4846 22.9083,33.8809 z m -103.5458,127.6346 a 30.193627,30.193627 0 0 1 -6.1891,-18.3596 c 0,-16.7471 13.5843,-30.3251 30.3426,-30.3251 a 30.393245,30.393245 0 0 1 9.2046,1.4203 v -36.6687 a 66.929533,66.929533 0 0 0 -10.4988,-0.6033 v 28.5414 a 30.417714,30.417714 0 0 0 -9.2081,-1.4207 c -16.7587,0 -30.3419,13.5777 -30.3419,30.3262 0,11.8419 6.7895,22.0959 16.6907,27.0902 z"
     id="path12-0-8-8-3"
     inkscape:export-filename="G:\Users\suitedoalex\sites\tiktok-logo-8.png"
     inkscape:export-xdpi="40.556736"
     inkscape:export-ydpi="40.556736" />
  <path
     inkscape:connector-curvature="0"
     style="clip-rule:evenodd;fill:#000000;fill-rule:evenodd;stroke-width:1.28784943"
     d="m 4580.8845,1062.7799 c 14.0981,10.0698 31.363,15.9953 50.0097,15.9953 v -28.2337 c -10.4081,-2.2151 -19.6229,-7.6524 -26.5514,-15.2143 -11.8583,-7.3963 -20.4035,-19.5985 -22.9083,-33.8809 h -26.1421 v 143.2591 c -0.056,16.7008 -13.6206,30.223 -30.3434,30.223 -9.854,0 -18.6089,-4.6944 -24.1531,-11.9666 -9.9011,-4.9944 -16.6907,-15.248 -16.6907,-27.0898 0,-16.7487 13.5828,-30.3263 30.3419,-30.3263 3.2103,0 6.3051,0.4999 9.208,1.4204 v -28.5412 c -35.989,0.7429 -64.9335,30.1341 -64.9335,66.2816 0,18.0441 7.2083,34.4027 18.9058,46.3534 10.5535,7.0833 23.2586,11.2136 36.9267,11.2136 36.6327,0 66.3304,-29.6824 66.3304,-66.2972 z"
     id="path14-6-8-5-8"
     inkscape:export-filename="G:\Users\suitedoalex\sites\tiktok-logo-8.png"
     inkscape:export-xdpi="40.556736"
     inkscape:export-ydpi="40.556736" />
  <path
     inkscape:connector-curvature="0"
     style="clip-rule:evenodd;fill:#25f4ee;fill-opacity:1;fill-rule:evenodd;stroke-width:1.28784943"
     d="m 4630.8942,1050.5415 v -7.6341 a 50.020068,50.020068 0 0 1 -26.5514,-7.5817 50.159156,50.159156 0 0 0 26.5514,15.2158 z m -49.4597,-49.0952 a 50.900956,50.900956 0 0 1 -0.55,-4.1187 v -4.61301 h -36.0955 v 143.26021 c -0.056,16.6997 -13.618,30.222 -30.3419,30.222 -4.9105,0 -9.5459,-1.1643 -13.6512,-3.235 5.5442,7.2722 14.2991,11.9666 24.1531,11.9666 16.7218,0 30.284,-13.5222 30.3434,-30.223 v -143.2591 z m -57.7782,76.9786 v -8.1275 a 66.929533,66.929533 0 0 0 -9.1011,-0.6168 c -36.637,0 -66.3347,29.6824 -66.3347,66.2946 0,22.9546 11.6717,43.1841 29.4081,55.0839 -11.6975,-11.9514 -18.9055,-28.3093 -18.9055,-46.3533 0,-36.1464 28.943,-65.5376 64.9332,-66.2804 z"
     id="path16-9-9-4-4"
     inkscape:export-filename="G:\Users\suitedoalex\sites\tiktok-logo-8.png"
     inkscape:export-xdpi="40.556736"
     inkscape:export-ydpi="40.556736" />
  <path
     inkscape:connector-curvature="0"
     style="clip-rule:evenodd;fill:#fe2c55;fill-opacity:1;fill-rule:evenodd;stroke-width:2.71212292"
     d="m 4613.5867,850.31481 c 20.6311,0 37.3568,-16.59 37.3568,-37.053 0,-20.463 -16.7257,-37.0557 -37.3568,-37.0557 h -5.6276 c 20.6311,0 37.3567,16.5927 37.3567,37.0557 0,20.463 -16.7256,37.053 -37.3567,37.053 z"
     id="path4-5-8"
     inkscape:export-filename="G:\Users\suitedoalex\sites\tiktok-logo-7.png"
     inkscape:export-xdpi="74.622467"
     inkscape:export-ydpi="74.622467" />
  <path
     inkscape:connector-curvature="0"
     style="clip-rule:evenodd;fill:#25f4ee;fill-opacity:1;fill-rule:evenodd;stroke-width:2.71212292"
     d="m 4607.4492,776.20611 h -5.6277 c -20.6311,0 -37.3595,16.5927 -37.3595,37.0557 0,20.463 16.7284,37.053 37.3595,37.053 h 5.6277 c -20.6339,0 -37.3595,-16.59 -37.3595,-37.053 0,-20.463 16.7256,-37.0557 37.3595,-37.0557 z"
     id="path6-9-7"
     inkscape:export-filename="G:\Users\suitedoalex\sites\tiktok-logo-7.png"
     inkscape:export-xdpi="74.622467"
     inkscape:export-ydpi="74.622467" />
  <path
     inkscape:connector-curvature="0"
     style="clip-rule:evenodd;fill:#000000;fill-rule:evenodd;stroke-width:2.71212292"
     d="m 4323.4438,759.45871 v 18.7814 h 22.0007 v 71.5675 h 22.0089 v -71.0603 h 17.9082 l 6.1402,-19.2886 z m 180.1256,0 v 18.7814 h 22.0008 v 71.5675 h 22.0089 v -71.0603 h 17.9081 l 6.1403,-19.2886 z m -107.9696,10.6586 c 0,-5.8853 4.8032,-10.6586 10.7373,-10.6586 5.9396,0 10.7479,4.7733 10.7479,10.6586 0,5.8853 -4.8059,10.6587 -10.7479,10.6587 -5.9341,0 -10.7373,-4.7734 -10.7373,-10.6587 z m 0,18.2743 h 21.4852 v 61.416 h -21.4852 z m 30.6983,-28.9329 v 90.3489 h 21.4936 v -23.3459 l 6.6531,-6.0969 20.9782,29.95 h 23.026 l -30.1941,-43.6516 27.1212,-26.3971 h -26.096 l -21.4884,21.3173 v -42.1247 z m 231.8054,0 v 90.3489 h 21.4963 v -23.3459 l 6.6501,-6.0969 20.9837,29.95 h 23.0286 l -30.194,-43.6516 27.1212,-26.3971 h -26.096 l -21.4936,21.3173 v -42.1247 z"
     id="path10-7-3"
     inkscape:export-filename="G:\Users\suitedoalex\sites\tiktok-logo-7.png"
     inkscape:export-xdpi="74.622467"
     inkscape:export-ydpi="74.622467" />
  <path
     inkscape:connector-curvature="0"
     style="clip-rule:evenodd;fill:#fe2c55;fill-opacity:1;fill-rule:evenodd;stroke-width:2.71212292"
     d="m 4624.9424,446.71301 c 29.6814,21.206 66.0456,33.6845 105.3171,33.6845 v -75.5353 a 106.47795,106.47795 0 0 1 -22.1173,-2.3135 v 59.4579 c -39.2689,0 -75.6276,-12.4785 -105.3172,-33.6846 v 154.1436 c 0,77.111 -62.5415,139.6173 -139.6879,139.6173 -28.7837,0 -55.5391,-8.6977 -77.7647,-23.6144 25.3662,25.9224 60.7404,42.0053 99.8767,42.0053 77.1517,0 139.696,-62.5063 139.696,-139.6201 v -154.1407 z m 27.2839,-76.2053 c -15.1689,-16.5629 -25.1278,-37.9697 -27.2839,-61.6357 v -9.7148 h -20.9593 c 5.2751,30.0774 23.27,55.7748 48.2432,71.3505 z m -218.0601,268.7904 a 63.585722,63.585722 0 0 1 -13.0347,-38.664 c 0,-35.2685 28.6077,-63.8624 63.9006,-63.8624 a 64.006101,64.006101 0 0 1 19.3835,2.9915 v -77.2223 a 140.94903,140.94903 0 0 0 -22.1092,-1.272 v 60.1061 a 64.057631,64.057631 0 0 0 -19.3917,-2.9915 c -35.2928,0 -63.8976,28.5939 -63.8976,63.8651 0,24.938 14.298,46.5319 35.1491,57.0495 z"
     id="path12-0-4"
     inkscape:export-filename="G:\Users\suitedoalex\sites\tiktok-logo-7.png"
     inkscape:export-xdpi="74.622467"
     inkscape:export-ydpi="74.622467" />
  <path
     inkscape:connector-curvature="0"
     style="clip-rule:evenodd;fill:#000000;fill-rule:evenodd;stroke-width:2.71212292"
     d="m 4602.825,428.32201 c 29.6896,21.2061 66.0483,33.6846 105.3172,33.6846 v -59.4579 c -21.9194,-4.6648 -41.3247,-16.1154 -55.9159,-32.041 -24.9732,-15.5757 -42.9681,-41.2731 -48.2432,-71.3505 h -55.0534 v 301.6938 c -0.1248,35.1708 -28.6834,63.6481 -63.9003,63.6481 -20.7532,0 -39.1902,-9.8857 -50.8662,-25.201 -20.8505,-10.5176 -35.1488,-32.1115 -35.1488,-57.0495 0,-35.2712 28.6048,-63.8651 63.8976,-63.8651 6.7613,0 13.2786,1.0523 19.3917,2.9915 v -60.1061 c -75.7903,1.5649 -136.7452,63.461 -136.7452,139.5848 0,37.9996 15.1797,72.449 39.8139,97.6175 22.2256,14.9167 48.981,23.6144 77.7647,23.6144 77.1464,0 139.6879,-62.509 139.6879,-139.6173 z"
     id="path14-6-7"
     inkscape:export-filename="G:\Users\suitedoalex\sites\tiktok-logo-7.png"
     inkscape:export-xdpi="74.622467"
     inkscape:export-ydpi="74.622467" />
  <path
     inkscape:connector-curvature="0"
     style="clip-rule:evenodd;fill:#25f4ee;fill-opacity:1;fill-rule:evenodd;stroke-width:2.71212292"
     d="m 4708.1422,402.54871 v -16.0774 a 105.33885,105.33885 0 0 1 -55.9159,-15.9663 105.63176,105.63176 0 0 0 55.9159,32.0437 z m -104.1591,-103.3915 a 107.19395,107.19395 0 0 1 -1.1581,-8.6734 v -9.7148 h -76.0154 v 301.6966 c -0.122,35.1681 -28.678,63.6453 -63.8976,63.6453 -10.3413,0 -20.1022,-2.4517 -28.7488,-6.8128 11.676,15.3153 30.113,25.201 50.8662,25.201 35.2142,0 63.7755,-28.4773 63.9003,-63.6481 v -301.6938 z m -121.6767,162.1117 v -17.1162 a 140.94903,140.94903 0 0 0 -19.1666,-1.2991 c -77.1544,0 -139.696,62.509 -139.696,139.612 0,48.3408 24.58,90.9429 61.9313,116.0029 -24.6342,-25.1685 -39.8139,-59.6179 -39.8139,-97.6175 0,-76.1211 60.9522,-138.0172 136.7452,-139.5821 z"
     id="path16-9-8"
     inkscape:export-filename="G:\Users\suitedoalex\sites\tiktok-logo-7.png"
     inkscape:export-xdpi="74.622467"
     inkscape:export-ydpi="74.622467" />
  <path
     inkscape:connector-curvature="0"
     style="clip-rule:evenodd;fill:#000000;fill-rule:evenodd;stroke-width:2.71212292"
     d="m 4607.9563,850.31481 c 20.6312,0 37.3595,-16.59 37.3595,-37.053 0,-20.463 -16.7283,-37.0557 -37.3595,-37.0557 h -0.5098 c -20.6312,0 -37.3568,16.5927 -37.3568,37.0557 0,20.463 16.7256,37.053 37.3568,37.053 z m -18.4207,-37.053 c 0,-9.9535 8.1364,-18.0166 18.1712,-18.0166 10.0267,0 18.1631,8.0631 18.1631,18.0166 0,9.9535 -8.1364,18.022 -18.1631,18.022 -10.0348,0 -18.1712,-8.0685 -18.1712,-18.022 z"
     id="path18-6-1"
     inkscape:export-filename="G:\Users\suitedoalex\sites\tiktok-logo-7.png"
     inkscape:export-xdpi="74.622467"
     inkscape:export-ydpi="74.622467" />
</svg>
