<?xml version="1.0" encoding="UTF-8" standalone="no"?>
<svg
   width="4096"
   height="4096"
   viewBox="0 0 3238.1658 3238.1659"
   version="1.1"
   id="svg20"
   sodipodi:docname="com.maxrdz.GnomeTikTok-symbolic.svg"
   inkscape:version="1.3.2 (091e20ef0f, 2023-11-25, custom)"
   inkscape:export-filename="G:\Users\suitedoalex\sites\tiktok-logo-0.png"
   inkscape:export-xdpi="96"
   inkscape:export-ydpi="96"
   xmlns:inkscape="http://www.inkscape.org/namespaces/inkscape"
   xmlns:sodipodi="http://sodipodi.sourceforge.net/DTD/sodipodi-0.dtd"
   xmlns="http://www.w3.org/2000/svg"
   xmlns:svg="http://www.w3.org/2000/svg"
   xmlns:rdf="http://www.w3.org/1999/02/22-rdf-syntax-ns#"
   xmlns:cc="http://creativecommons.org/ns#"
   xmlns:dc="http://purl.org/dc/elements/1.1/">
  <metadata
     id="metadata26">
    <rdf:RDF>
      <cc:Work
         rdf:about="">
        <dc:format>image/svg+xml</dc:format>
        <dc:type
           rdf:resource="http://purl.org/dc/dcmitype/StillImage" />
        <dc:title />
      </cc:Work>
    </rdf:RDF>
  </metadata>
  <defs
     id="defs24" />
  <sodipodi:namedview
     pagecolor="#ffffff"
     bordercolor="#666666"
     borderopacity="1"
     objecttolerance="10"
     gridtolerance="10"
     guidetolerance="10"
     inkscape:pageopacity="0"
     inkscape:pageshadow="2"
     inkscape:window-width="1474"
     inkscape:window-height="751"
     id="namedview22"
     showgrid="false"
     inkscape:zoom="0.093287007"
     inkscape:cx="1892.0105"
     inkscape:cy="2224.3183"
     inkscape:window-x="50"
     inkscape:window-y="124"
     inkscape:window-maximized="0"
     inkscape:current-layer="svg20"
     inkscape:showpageshadow="2"
     inkscape:pagecheckerboard="0"
     inkscape:deskcolor="#d1d1d1" />
  <path
     inkscape:connector-curvature="0"
     style="clip-rule:evenodd;fill:#000000;fill-opacity:1;fill-rule:evenodd;stroke-width:16.7727"
     d="m 2198.7615,1221.7205 c 183.5608,131.1459 408.4497,208.3172 651.3189,208.3172 V 962.90033 a 658.49767,658.49767 0 0 1 -136.7817,-14.30711 v 367.70858 c -242.8525,0 -467.7077,-77.1714 -651.319,-208.3172 v 953.2784 c 0,476.8825 -386.7792,863.4438 -863.8798,863.4438 -178.0091,0 -343.47219,-53.7902 -480.92464,-146.0403 156.87525,160.3139 375.64204,259.7762 617.67274,259.7762 477.1341,0 863.9303,-386.5613 863.9303,-863.4605 v -953.2617 z m 168.7337,-471.28037 c -93.81,-102.43119 -155.3995,-234.81837 -168.7337,-381.17728 v -60.07994 h -129.6199 c 32.6231,186.00965 143.9102,344.93136 298.3536,441.25722 z M 1018.9336,2412.7357 a 393.23683,393.23683 0 0 1 -80.60999,-239.1121 c 0,-218.1127 176.91899,-394.9477 395.18259,-394.9477 a 395.83661,395.83661 0 0 1 119.8748,18.5003 v -477.5701 a 871.67917,871.67917 0 0 0 -136.7314,-7.8664 v 371.7174 a 396.15529,396.15529 0 0 0 -119.925,-18.5003 c -218.26368,0 -395.16569,176.8349 -395.16569,394.9644 0,154.2253 88.4256,287.7698 217.37469,352.8145 z"
     id="path12-0"
     inkscape:export-filename="G:\Users\suitedoalex\sites\tiktok-logo-11.png"
     inkscape:export-xdpi="8.0946302"
     inkscape:export-ydpi="8.0946302" />
  <path
     inkscape:connector-curvature="0"
     style="clip-rule:evenodd;fill:#000000;fill-rule:evenodd;stroke-width:16.7727"
     d="m 2061.9797,1107.9846 c 183.6113,131.1458 408.4665,208.3172 651.319,208.3172 V 948.59322 C 2577.7414,919.74417 2457.7325,848.92959 2367.4952,750.44013 2213.0518,654.11427 2101.7647,495.19256 2069.1416,309.18291 H 1728.6719 V 2174.9654 c -0.7715,217.5089 -177.3884,393.6226 -395.1825,393.6226 -128.3449,0 -242.366,-61.1366 -314.5729,-155.8523 -128.94859,-65.0447 -217.37439,-198.5892 -217.37439,-352.8145 0,-218.1295 176.90201,-394.9644 395.16579,-394.9644 41.8144,0 82.1193,6.5078 119.9249,18.5003 v -371.7174 c -468.71409,9.6779 -845.68137,392.4652 -845.68137,863.2425 0,235.0028 93.87698,448.0501 246.22383,603.7011 137.45245,92.2501 302.91554,146.0402 480.92464,146.0402 477.1006,0 863.8798,-386.578 863.8798,-863.4437 z"
     id="path14-6"
     inkscape:export-filename="G:\Users\suitedoalex\sites\tiktok-logo-11.png"
     inkscape:export-xdpi="8.0946302"
     inkscape:export-ydpi="8.0946302" />
  <path
     inkscape:connector-curvature="0"
     style="clip-rule:evenodd;fill:#000000;fill-opacity:1;fill-rule:evenodd;stroke-width:16.7727"
     d="m 2713.2987,948.59322 v -99.4288 a 651.45312,651.45312 0 0 1 -345.8035,-98.74111 653.26459,653.26459 0 0 0 345.8035,198.16991 z M 2069.1416,309.18291 a 662.92568,662.92568 0 0 1 -7.1619,-53.63922 V 195.46374 H 1591.8735 V 2061.263 c -0.7548,217.4922 -177.3549,393.6059 -395.1656,393.6059 -63.9545,0 -124.3197,-15.1626 -177.7914,-42.1332 72.2069,94.7157 186.228,155.8523 314.5729,155.8523 217.7774,0 394.411,-176.1137 395.1825,-393.6226 V 309.18291 Z m -752.492,1002.55679 v -105.8528 a 871.67917,871.67917 0 0 0 -118.5328,-8.0342 c -477.15092,0 -863.93027,386.578 -863.93027,863.4103 0,298.9572 152.01135,562.4234 383.00543,717.4035 -152.34673,-155.651 -246.22371,-368.6984 -246.22371,-603.7011 0,-470.7605 376.95046,-853.5478 845.68135,-863.2257 z"
     id="path16-9"
     inkscape:export-filename="G:\Users\suitedoalex\sites\tiktok-logo-11.png"
     inkscape:export-xdpi="8.0946302"
     inkscape:export-ydpi="8.0946302" />
</svg>
